<svg width="22" height="23" viewBox="0 0 22 23" fill="none" xmlns="http://www.w3.org/2000/svg">
<g clip-path="url(#clip0)">
<path d="M16.499 0.90448L13.6462 0.899902C10.441 0.899902 8.36976 3.02499 8.36976 6.31413V8.81045H5.50132C5.25345 8.81045 5.05273 9.0114 5.05273 9.25927V12.8762C5.05273 13.124 5.25368 13.3248 5.50132 13.3248H8.36976V22.4513C8.36976 22.6992 8.57048 22.8999 8.81835 22.8999H12.5609C12.8087 22.8999 13.0094 22.699 13.0094 22.4513V13.3248H16.3633C16.6112 13.3248 16.8119 13.124 16.8119 12.8762L16.8133 9.25927C16.8133 9.14026 16.7659 9.02628 16.6819 8.94206C16.5979 8.85783 16.4835 8.81045 16.3645 8.81045H13.0094V6.69429C13.0094 5.67718 13.2518 5.16084 14.5767 5.16084L16.4986 5.16015C16.7462 5.16015 16.9469 4.9592 16.9469 4.71156V1.35307C16.9469 1.10566 16.7464 0.904938 16.499 0.90448Z" fill="#B9B9B9"/>
</g>
<defs>
<clipPath id="clip0">
<rect width="22" height="22" fill="white" transform="translate(0 0.899902)"/>
</clipPath>
</defs>
</svg>
