<svg width="214" height="161" viewBox="0 0 214 161" fill="none" xmlns="http://www.w3.org/2000/svg">
<path d="M189.234 48.8651L189.127 49.0426L189.099 49.248L189.097 49.2629L188.83 51.245L190.576 50.2693C195.033 47.7789 198.568 48.0082 201.405 49.738C204.332 51.5228 206.694 55.0118 208.46 59.3974C211.989 68.1636 212.883 79.8681 211.647 86.2665C209.835 95.6291 203.659 103.307 195.903 107.961C188.138 112.619 178.899 114.184 171.026 111.48L170.505 111.301L170.075 111.646C161.42 118.598 151.73 118.152 142.298 114.083L141.286 113.647L140.949 114.696C139.416 119.469 139.186 123.719 140.071 127.683C140.954 131.639 142.93 135.237 145.7 138.735C148.236 141.938 151.479 145.102 155.223 148.415C152.95 147.035 150.624 145.65 148.294 144.263C144.613 142.071 140.921 139.873 137.412 137.679C131.505 133.986 126.233 130.374 122.6 126.967C120.783 125.263 119.419 123.649 118.584 122.141C117.752 120.639 117.482 119.311 117.729 118.12L118.025 116.686L116.582 116.932C112.214 117.674 107.778 118.138 103.328 118.316L102.87 118.335L102.585 118.694C95.9494 127.057 86.8271 128.323 79.261 125.295L78.5515 125.011L78.0912 125.621C72.8447 132.576 63.8247 137.864 54.2563 140.391C44.6767 142.922 34.7636 142.631 27.7234 138.707C19.3012 134.012 14.7379 124.79 14.9374 116.008C15.1357 107.276 20.0314 99.0477 30.5303 96.1535L32.9502 95.4864L30.7345 94.3067C23.3655 90.3837 16.7059 84.052 12.4721 76.965C8.23239 69.8679 6.49589 62.144 8.71301 55.3632L8.87104 54.8799L8.57357 54.4674C0.659126 43.4943 -2.02116 29.4535 5.26014 17.7704C16.6933 -0.571004 38.6884 -1.9782 55.6165 7.20837L55.9086 7.36686L56.2374 7.31905C66.0573 5.89104 77.3416 8.77852 89.0516 18.0543L90.2684 19.0182L90.643 17.5117C92.1521 11.4426 96.2048 7.49979 101.679 5.22004C107.187 2.92632 114.116 2.33208 121.207 3.03716C128.289 3.74128 135.453 5.73361 141.389 8.53243C147.356 11.3456 151.946 14.9082 154.059 18.6666L154.429 19.3245L155.163 19.149C165.121 16.7686 177.14 18.6949 184.883 24.0047C188.737 26.6476 191.472 30.0835 192.441 34.1836C193.409 38.2732 192.659 43.1849 189.234 48.8651Z" stroke="#B9B9B9" stroke-width="2"/>
</svg>
