<svg width="178" height="142" viewBox="0 0 178 142" fill="none" xmlns="http://www.w3.org/2000/svg">
<path d="M176.074 53.8709C178.523 36.3475 165.935 18.0882 149.615 8.70272C141.484 4.02717 132.539 1.62739 124.235 2.59191C115.969 3.55217 108.255 7.85342 102.514 16.7543L101.827 17.8197L100.951 16.9034C93.1606 8.75458 82.4178 4.39561 70.9079 2.69986C59.4027 1.0048 47.1997 1.98286 36.5909 4.4438L36.5908 4.449C17.6508 8.84177 6.63017 18.8763 3.15503 31.1344C-0.329224 43.4247 3.67603 58.2766 15.5009 72.474C21.7775 80.0056 33.9969 92.4111 47.5331 102.878L47.9274 103.183L47.9214 103.681C47.9167 104.058 47.9125 104.447 47.9081 104.848C47.848 110.306 47.7654 117.816 46.5344 124.751C45.7244 129.315 44.3932 133.778 42.1395 137.254C48.9038 133.555 53.9729 130.445 58.0117 127.878C59.2919 127.064 60.4749 126.3 61.58 125.586C64.9312 123.423 67.5654 121.722 70.0206 120.489C76.7466 117.111 82.2638 117.177 97.6014 119.627C104.533 120.734 112.646 119.044 121.046 115.34C129.432 111.641 138.02 105.97 145.86 99.2333C153.698 92.4978 160.764 84.7194 166.117 76.8275C171.478 68.9244 175.08 60.9679 176.074 53.8709Z" stroke="#B9B9B9" stroke-width="2"/>
</svg>
