<svg width="234" height="166" viewBox="0 0 234 166" fill="none" xmlns="http://www.w3.org/2000/svg">
<path d="M175.544 58.7428L176.181 58.585L176.272 58.0451C179.707 50.6187 185.169 46.3334 191.349 44.5098C197.596 42.6662 204.649 43.3202 211.167 45.9241C224.24 51.1468 234.795 64.0264 232.378 79.53C230.677 90.4181 223.467 99.1361 213.336 106.1C203.204 113.064 190.253 118.199 177.31 121.931L176.777 122.085L176.625 122.618C176.004 124.797 175.164 127.055 174.02 129.563C171.385 135.338 168.181 141.552 165.207 147.319C164.772 148.163 164.341 148.998 163.918 149.821C162.747 152.099 161.627 154.291 160.62 156.33C161 153.939 161.347 151.329 161.625 148.633C162.387 141.255 162.655 133.106 161.696 126.901L161.535 125.86L160.504 126.075C151.793 127.891 143.747 129.101 137.385 129.858C119.13 132.033 89.4587 131.587 62.5513 125.255C49.1003 122.089 36.3891 117.463 26.1516 110.995C15.9181 104.53 8.20671 96.2577 4.63909 85.8033C2.27701 78.881 0.951724 73.3712 1.23359 68.3345C1.51273 63.3466 3.37577 58.7279 7.59612 53.6105L7.59618 53.6104C12.4066 47.7764 16.5295 44.6256 22.7458 40.6327L24.9667 39.5227L25.9563 39.0281L25.3646 38.0934C20.8682 30.9904 21.5967 23.8243 25.2568 17.6727C28.9441 11.4752 35.6102 6.32981 42.8739 3.5251L42.8739 3.52508C66.3829 -5.55387 90.5346 13.4062 92.8573 37.3508L94.8163 37.5213C99.8466 19.3691 114.926 12.2836 133.355 8.90787C147.4 6.33567 158.695 11.9438 165.972 21.4631C173.247 30.9783 176.502 44.411 174.343 57.4525L173.525 59.2437L175.536 58.7448L175.544 58.7428Z" stroke="#B9B9B9" stroke-width="2"/>
</svg>
