<svg width="152" height="185" viewBox="0 0 152 185" fill="none" xmlns="http://www.w3.org/2000/svg">
<path d="M2.3779 100.988L2.37967 100.988L2.32946 100.121C1.03682 77.8081 2.70552 53.6219 11.5452 34.8189C15.9576 25.4333 22.1462 17.4108 30.6291 11.6164C39.1089 5.82412 49.9392 2.21848 63.7012 1.75422C79.3604 1.24451 96.1306 6.23119 110.208 13.0774C139.248 27.2032 150.857 56.849 150.325 88.5794C150.143 99.4079 149.136 113.335 145.157 125.522C141.176 137.715 134.289 147.969 122.471 151.817L122.781 152.768L122.471 151.817C116.585 153.734 110.161 153.878 103.522 153.82C102.741 153.813 101.957 153.804 101.171 153.794C95.3259 153.722 89.3552 153.649 83.6926 154.724L83.1697 154.823L82.96 155.312C80.2209 161.699 74.6042 167.226 68.05 171.892C63.0868 175.426 57.6423 178.428 52.6263 180.909C55.3685 177.63 58.0367 173.763 60.2311 169.673C63.3492 163.86 65.5585 157.505 65.5893 151.69L65.5951 150.586L64.4956 150.689C44.8759 152.535 29.9715 150.015 19.6822 142.09C9.56326 134.297 3.68482 121.099 2.3779 100.988Z" stroke="#B9B9B9" stroke-width="2"/>
</svg>
