<svg width="20" height="21" viewBox="0 0 20 21" fill="none" xmlns="http://www.w3.org/2000/svg">
<g clip-path="url(#clip0)">
<path d="M13.75 0.899902H6.25C2.79875 0.899902 0 3.69865 0 7.1499V14.6499C0 18.1012 2.79875 20.8999 6.25 20.8999H13.75C17.2013 20.8999 20 18.1012 20 14.6499V7.1499C20 3.69865 17.2013 0.899902 13.75 0.899902ZM18.125 14.6499C18.125 17.0624 16.1625 19.0249 13.75 19.0249H6.25C3.8375 19.0249 1.875 17.0624 1.875 14.6499V7.1499C1.875 4.7374 3.8375 2.7749 6.25 2.7749H13.75C16.1625 2.7749 18.125 4.7374 18.125 7.1499V14.6499Z" fill="#B9B9B9"/>
<path d="M10 5.8999C7.23875 5.8999 5 8.13865 5 10.8999C5 13.6612 7.23875 15.8999 10 15.8999C12.7613 15.8999 15 13.6612 15 10.8999C15 8.13865 12.7613 5.8999 10 5.8999ZM10 14.0249C8.2775 14.0249 6.875 12.6224 6.875 10.8999C6.875 9.17615 8.2775 7.7749 10 7.7749C11.7225 7.7749 13.125 9.17615 13.125 10.8999C13.125 12.6224 11.7225 14.0249 10 14.0249Z" fill="#B9B9B9"/>
<path d="M15.375 6.19089C15.7429 6.19089 16.0412 5.89261 16.0412 5.52465C16.0412 5.15669 15.7429 4.8584 15.375 4.8584C15.007 4.8584 14.7087 5.15669 14.7087 5.52465C14.7087 5.89261 15.007 6.19089 15.375 6.19089Z" fill="#B9B9B9"/>
</g>
<defs>
<clipPath id="clip0">
<rect width="20" height="20" fill="white" transform="translate(0 0.899902)"/>
</clipPath>
</defs>
</svg>
