<svg width="77" height="36" viewBox="0 0 77 36" fill="none" xmlns="http://www.w3.org/2000/svg">
<g clip-path="url(#clip0)">
<path d="M16.445 11.0237V26.1787H14.3264V11.0237H16.445ZM22.2585 13.6563C22.2585 14.3278 22.5195 14.9535 23.0414 15.5335C23.5787 16.0982 24.2235 16.6019 24.9757 17.0444C25.7433 17.4718 26.5032 17.9144 27.2554 18.3722C28.0076 18.8148 28.6447 19.3642 29.1667 20.0205C29.7041 20.6768 29.9726 21.4017 29.9726 22.1953C29.9726 23.4468 29.5044 24.4693 28.568 25.2629C27.6469 26.0565 26.3957 26.4534 24.8145 26.4534C23.2333 26.4534 21.6674 26.1558 20.1169 25.5605V24.4846C21.6828 25.2629 23.0107 25.6521 24.1007 25.6521C25.206 25.6521 26.0657 25.385 26.6797 24.8509C27.2938 24.3167 27.6008 23.5765 27.6008 22.6303C27.6008 21.9893 27.3475 21.4093 26.8409 20.8904C26.3343 20.3563 25.7203 19.8984 24.9987 19.5169C24.2772 19.12 23.5557 18.7156 22.8342 18.3035C22.1127 17.8915 21.4986 17.3725 20.9919 16.7468C20.4854 16.1058 20.232 15.3351 20.232 14.4347C20.232 13.5342 20.6312 12.6948 21.4294 11.9165C22.2431 11.1381 23.4482 10.7489 25.0447 10.7489C26.0887 10.7489 27.409 10.9855 29.0055 11.4586L28.7752 13.0153C26.7027 12.1301 24.9296 11.6875 23.4559 11.6875C22.6576 12.0691 22.2585 12.7253 22.2585 13.6563ZM35.5145 11.0237V26.1787H33.396V11.0237H35.5145ZM39.6701 26.1787V11.0237H44.0223C45.8338 11.0237 46.4555 11.2909 47.9139 12.054C48.4385 12.3285 49.2418 13.0611 49.8252 13.6563C50.4086 14.2515 50.8768 15.0146 51.2298 15.9456C51.583 16.8613 51.7595 17.8839 51.7595 19.0132C51.7595 20.631 51.3527 21.9969 50.539 23.111C49.05 25.1562 47.7911 26.1787 44.4598 26.1787H39.6701ZM43.9538 25.1943C45.8547 24.9882 46.5558 24.6416 47.5454 23.6833C48.7276 22.5387 49.3186 20.8599 49.3186 18.6469C49.3186 16.9376 48.8503 15.4801 47.9139 14.2744C46.9775 13.0535 45.832 12.3278 45.4117 12.1683C45.1106 12.054 42.9246 12.008 41.9268 12.3285V25.1943C42.4181 25.3316 43.0634 25.1943 43.9538 25.1943ZM52.2741 26.1787L58.7308 10.7489L65.2769 26.1787H62.7666L61.0399 22.0579H55.2048L53.4983 26.1787H52.2741ZM55.5943 21.188H60.6716L58.1172 15.288L55.5943 21.188Z" fill="white"/>
<path d="M18.1464 11.9927H12.5851V11.0256H18.1464V11.9927Z" fill="white"/>
<path d="M18.1464 26.1681H12.5851V25.2011H18.1464V26.1681Z" fill="white"/>
<path d="M37.1451 11.9927H31.5837V11.0256H37.1451V11.9927Z" fill="white"/>
<path d="M37.1451 26.1681H31.5837V25.2011H37.1451V26.1681Z" fill="white"/>
<path d="M41.8823 2.56723H1.85574V34.635H76.0063V2.56723H72.8545" stroke="#E13436" stroke-width="2" stroke-linecap="round"/>
<path d="M48.8543 2.83495H49.4347V4.3994C49.0916 4.53424 48.6787 4.60165 48.1961 4.60165C47.6097 4.60165 47.1051 4.44699 46.6822 4.13766C46.4749 3.98301 46.3093 3.78076 46.1856 3.53093C46.062 3.27713 46.0001 2.99755 46.0001 2.69219C46.0001 2.38684 46.048 2.1132 46.1438 1.8713C46.2395 1.62543 46.3631 1.4212 46.5147 1.25861C46.6703 1.09601 46.8498 0.957221 47.0532 0.842215C47.4322 0.628068 47.8491 0.520996 48.3038 0.520996C48.4793 0.520996 48.6688 0.540824 48.8722 0.580481C49.0757 0.620137 49.2312 0.661776 49.3389 0.705399L49.2791 1.10395C48.7406 0.877904 48.2938 0.764882 47.9388 0.764882C47.5359 0.867993 47.2168 1.08015 46.9814 1.40137C46.7501 1.72259 46.6344 2.11519 46.6344 2.57917C46.6344 3.15815 46.788 3.60628 47.0951 3.92353C47.4023 4.23682 47.8071 4.39345 48.3098 4.39345C48.5092 4.39345 48.6907 4.37364 48.8543 4.33396V2.83495ZM52.1181 2.65055V4.53026H51.5317V0.592377H52.8242C53.2271 0.592377 53.5562 0.681604 53.8114 0.860059C54.0707 1.03851 54.2004 1.27447 54.2004 1.56793C54.2004 1.85742 54.0967 2.08743 53.8892 2.25795C53.6858 2.42451 53.4085 2.53951 53.0575 2.60296L54.6611 4.53026L53.967 4.61354L52.5788 2.65055H52.1181ZM52.1181 2.4721H52.501C53.2191 2.4721 53.5781 2.19054 53.5781 1.62741C53.5781 1.53224 53.5541 1.42516 53.5063 1.3062C53.4145 1.05636 53.2191 0.891787 52.9199 0.812471C52.6486 0.812471 52.3814 0.846176 52.1181 0.913598V2.4721ZM58.2659 0.520996C58.7844 0.520996 59.2136 0.691519 59.5523 1.03256C59.8915 1.36964 60.0608 1.83958 60.0608 2.44236C60.0608 2.83099 59.9932 3.17204 59.8574 3.46549C59.7222 3.75499 59.5445 3.97905 59.3248 4.13766C58.8985 4.44699 58.4274 4.60165 57.9132 4.60165C57.3986 4.60165 56.9716 4.43111 56.6325 4.09009C56.2975 3.74508 56.1299 3.27118 56.1299 2.6684C56.1299 2.35511 56.1738 2.07355 56.2616 1.82371C56.3533 1.56991 56.471 1.3637 56.6146 1.20507C56.7622 1.04644 56.932 0.913598 57.1231 0.806526C57.474 0.616171 57.8551 0.520996 58.2659 0.520996ZM57.0633 3.85215C57.1672 4.02663 57.3069 4.16343 57.4824 4.26259C57.6579 4.35776 57.859 4.40535 58.0865 4.40535C58.3178 4.40535 58.5235 4.34783 58.7029 4.23284C58.8822 4.11784 59.022 3.96715 59.1214 3.78076C59.3248 3.40799 59.4271 3.00746 59.4271 2.57917C59.4271 2.05174 59.3209 1.62741 59.1097 1.3062C58.8744 0.945321 58.4855 0.764882 57.9429 0.764882C57.5562 0.899715 57.2628 1.1317 57.0633 1.46086C56.8638 1.79 56.7642 2.16278 56.7642 2.57917C56.7642 3.08678 56.8638 3.5111 57.0633 3.85215ZM64.8622 0.592377V3.00746C64.8622 3.37627 64.8225 3.65386 64.7426 3.84025C64.7069 3.92353 64.6487 4.0187 64.5688 4.12578C64.4934 4.22886 64.4034 4.31214 64.3 4.3756C64.0363 4.52629 63.7077 4.60165 63.3126 4.60165C62.3235 4.60165 61.8284 4.09603 61.8284 3.08479V0.592377H62.4392V3.13238C62.4392 3.24738 62.4408 3.34058 62.4447 3.41196C62.4487 3.48334 62.4688 3.58446 62.5045 3.71533C62.5448 3.8462 62.5962 3.95129 62.6605 4.0306C62.7281 4.10991 62.832 4.18128 62.9717 4.24474C63.1148 4.3082 63.2847 4.33991 63.4802 4.33991C64.2257 4.33991 64.599 3.94335 64.599 3.15023V0.592377H64.8622ZM69.6312 1.61552C69.6312 1.99622 69.4893 2.28571 69.2065 2.484C68.9271 2.67831 68.546 2.77547 68.0637 2.77547H67.549V4.53026H66.9684V0.592377H68.2548C68.6577 0.592377 68.9869 0.683587 69.2423 0.866009C69.5016 1.04843 69.6312 1.29826 69.6312 1.61552ZM67.549 2.60296H68.0816C68.2688 2.60296 68.4286 2.56728 68.5599 2.49589C68.6957 2.42451 68.7935 2.3333 68.8533 2.22226C68.9612 2.02398 69.0148 1.83164 69.0148 1.64526C69.0148 1.55405 68.9908 1.44499 68.9433 1.31809C68.8472 1.05636 68.6499 0.885837 68.3504 0.806526C68.0637 0.806526 67.796 0.840232 67.549 0.907648V2.60296Z" fill="white"/>
</g>
<defs>
<clipPath id="clip0">
<rect width="76" height="35" fill="white" transform="translate(0.905975 0.207977)"/>
</clipPath>
</defs>
</svg>
