<svg width="20" height="20" viewBox="0 0 20 20" fill="none" xmlns="http://www.w3.org/2000/svg">
<g clip-path="url(#clip0)">
<path d="M19.5 4.50871C18.7934 4.81865 18.0406 5.02409 17.2556 5.12384C18.0631 4.64171 18.6794 3.88409 18.9692 2.9709C18.2163 3.41978 17.3851 3.73684 16.4992 3.91378C15.7843 3.15259 14.7654 2.68115 13.6539 2.68115C11.4974 2.68115 9.76131 4.43153 9.76131 6.57734C9.76131 6.88609 9.78744 7.18296 9.85156 7.46559C6.61325 7.30765 3.74781 5.75559 1.82287 3.39128C1.48681 3.97434 1.28969 4.64171 1.28969 5.36015C1.28969 6.70915 1.98438 7.90496 3.01988 8.59728C2.39406 8.5854 1.78013 8.40372 1.26 8.11753C1.26 8.1294 1.26 8.14484 1.26 8.16028C1.26 10.0532 2.61019 11.6254 4.38075 11.9876C4.06369 12.0743 3.71812 12.1158 3.3595 12.1158C3.11013 12.1158 2.85837 12.1016 2.62206 12.0493C3.12675 13.5919 4.55888 14.726 6.26175 14.7628C4.9365 15.7995 3.25381 16.4241 1.43219 16.4241C1.11275 16.4241 0.806375 16.4098 0.5 16.3707C2.22544 17.4833 4.27031 18.1187 6.4755 18.1187C13.6432 18.1187 17.562 12.1812 17.562 7.03453C17.562 6.86234 17.5561 6.69609 17.5478 6.53103C18.3208 5.9824 18.9704 5.29721 19.5 4.50871Z" fill="#B9B9B9"/>
</g>
<defs>
<clipPath id="clip0">
<rect width="19" height="19" fill="white" transform="translate(0.5 0.899902)"/>
</clipPath>
</defs>
</svg>
