<svg width="19" height="20" viewBox="0 0 19 20" fill="none" xmlns="http://www.w3.org/2000/svg">
<g clip-path="url(#clip0)">
<path d="M18.6387 8.18849C18.5763 8.04822 18.443 7.95847 18.2955 7.95847H17.1746C16.4619 3.87599 13.0657 0.772583 8.9951 0.772583C4.4075 0.772583 0.674683 4.71278 0.674683 9.55525C0.674683 14.3977 4.40711 18.3375 8.9951 18.3375C11.9558 18.3375 14.7171 16.6554 16.2011 13.9486C16.4102 13.5666 16.2869 13.0787 15.9246 12.8575C15.563 12.6364 15.1004 12.7666 14.8917 13.1486C13.6769 15.3643 11.4174 16.7411 8.9951 16.7411C5.24161 16.7411 2.18742 13.5177 2.18742 9.55606C2.18742 5.59363 5.24161 2.37017 8.9951 2.37017C12.2281 2.37017 14.9369 4.76371 15.627 7.95888H14.5149C14.3674 7.95888 14.2345 8.04862 14.1717 8.18889C14.1093 8.32917 14.1296 8.4945 14.2238 8.61376L16.1149 11.0089C16.1869 11.0999 16.293 11.1524 16.4056 11.1524C16.5178 11.1524 16.6243 11.0995 16.6959 11.0089L18.587 8.61376C18.6812 8.4941 18.7011 8.32876 18.6387 8.18849Z" fill="#EDDA36"/>
<path d="M8.99512 2.7688C8.57729 2.7688 8.23875 3.12615 8.23875 3.56719V8.41168C7.89676 8.66474 7.67157 9.08192 7.67157 9.5557C7.67157 10.3262 8.26556 10.9532 8.9955 10.9532C9.19541 10.9532 9.38383 10.9026 9.55387 10.8182L12.1849 12.421C12.3044 12.4942 12.4338 12.5285 12.5625 12.5285C12.8237 12.5285 13.078 12.3854 13.2181 12.1291C13.4268 11.7479 13.3031 11.2592 12.9409 11.0389L10.3072 9.43361C10.2719 9.01158 10.064 8.64291 9.75225 8.41249V3.56719C9.75148 3.12656 9.41255 2.7688 8.99512 2.7688ZM8.99512 10.154C8.68223 10.154 8.42794 9.88516 8.42794 9.5557C8.42794 9.22583 8.68261 8.95701 8.99512 8.95701C9.30762 8.95701 9.5623 9.22583 9.5623 9.5557C9.5623 9.88516 9.30762 10.154 8.99512 10.154Z" fill="#EDDA36"/>
</g>
<defs>
<clipPath id="clip0">
<rect width="18" height="19" fill="white" transform="translate(0.674683 0.0550537)"/>
</clipPath>
</defs>
</svg>
