<svg width="20" height="19" viewBox="0 0 20 19" fill="none" xmlns="http://www.w3.org/2000/svg">
<g clip-path="url(#clip0)">
<path d="M17.3359 1.9613H16.4453V0.555054H14.9609V1.9613H5.16406V0.555054H3.67969V1.9613H2.78906C1.56134 1.9613 0.5625 2.90757 0.5625 4.07068V16.4457C0.5625 17.6088 1.56134 18.5551 2.78906 18.5551H17.3359C18.5637 18.5551 19.5625 17.6088 19.5625 16.4457V4.07068C19.5625 2.90757 18.5637 1.9613 17.3359 1.9613ZM18.0781 16.4457C18.0781 16.8334 17.7452 17.1488 17.3359 17.1488H2.78906C2.37982 17.1488 2.04688 16.8334 2.04688 16.4457V7.16443H18.0781V16.4457ZM18.0781 5.75818H2.04688V4.07068C2.04688 3.68298 2.37982 3.36755 2.78906 3.36755H3.67969V4.7738H5.16406V3.36755H14.9609V4.7738H16.4453V3.36755H17.3359C17.7452 3.36755 18.0781 3.68298 18.0781 4.07068V5.75818Z" fill="#EDDA36"/>
<path d="M4.86719 8.64099H3.38281V10.0472H4.86719V8.64099Z" fill="#EDDA36"/>
<path d="M7.83594 8.64099H6.35156V10.0472H7.83594V8.64099Z" fill="#EDDA36"/>
<path d="M10.8047 8.64099H9.32031V10.0472H10.8047V8.64099Z" fill="#EDDA36"/>
<path d="M13.7734 8.64099H12.2891V10.0472H13.7734V8.64099Z" fill="#EDDA36"/>
<path d="M16.7422 8.64099H15.2578V10.0472H16.7422V8.64099Z" fill="#EDDA36"/>
<path d="M4.86719 11.4535H3.38281V12.8597H4.86719V11.4535Z" fill="#EDDA36"/>
<path d="M7.83594 11.4535H6.35156V12.8597H7.83594V11.4535Z" fill="#EDDA36"/>
<path d="M10.8047 11.4535H9.32031V12.8597H10.8047V11.4535Z" fill="#EDDA36"/>
<path d="M13.7734 11.4535H12.2891V12.8597H13.7734V11.4535Z" fill="#EDDA36"/>
<path d="M4.86719 14.266H3.38281V15.6722H4.86719V14.266Z" fill="#EDDA36"/>
<path d="M7.83594 14.266H6.35156V15.6722H7.83594V14.266Z" fill="#EDDA36"/>
<path d="M10.8047 14.266H9.32031V15.6722H10.8047V14.266Z" fill="#EDDA36"/>
<path d="M13.7734 14.266H12.2891V15.6722H13.7734V14.266Z" fill="#EDDA36"/>
<path d="M16.7422 11.4535H15.2578V12.8597H16.7422V11.4535Z" fill="#EDDA36"/>
</g>
<defs>
<clipPath id="clip0">
<rect width="19" height="18" fill="white" transform="translate(0.5625 0.555054)"/>
</clipPath>
</defs>
</svg>
