<svg width="39" height="42" viewBox="0 0 39 42" fill="none" xmlns="http://www.w3.org/2000/svg">
<path d="M9.11382 8.77458L24.6613 4.31315L23.8379 2.56357C23.2992 1.42635 21.9853 0.956721 20.9036 1.52303L6.98535 8.77458H9.11382Z" fill="white"/>
<path d="M29.4876 4.44214C29.2949 4.44214 29.1022 4.46976 28.9095 4.52501L25.257 5.57476L14.1022 8.77465H26.7635H32.2817L31.5985 6.14107C31.3358 5.11435 30.4511 4.44214 29.4876 4.44214Z" fill="white"/>
<path d="M34.5635 10.386H34.0642H33.3854H32.7066H27.5255H8.48759H5.99124H3.88905H3.49927H2.19416C1.50219 10.386 0.884672 10.7221 0.481752 11.2516C0.29781 11.4956 0.157664 11.7764 0.0788321 12.0849C0.0306569 12.2783 0 12.4809 0 12.6881V12.9643V15.5887V38.3378C0 39.6086 0.981022 40.6399 2.18978 40.6399H34.5591C35.7679 40.6399 36.7489 39.6086 36.7489 38.3378V31.915H23.7547C21.7007 31.915 20.0321 30.1608 20.0321 28.0015V25.8928V25.1791V24.4655V22.8817C20.0321 21.8227 20.435 20.8605 21.0876 20.156C21.6657 19.5298 22.4409 19.1063 23.308 19.0004C23.4526 18.982 23.6015 18.9727 23.7504 18.9727H34.927H35.6058H36.2847H36.7489V12.6881C36.7533 11.4173 35.7723 10.386 34.5635 10.386Z" fill="white"/>
<path d="M38.2861 21.1737C38.0671 20.9619 37.8087 20.8007 37.5197 20.6948C37.2963 20.6166 37.0598 20.5706 36.8102 20.5706H36.7533H36.7095H36.0306H33.5825H23.7547C22.5459 20.5706 21.5649 21.6018 21.5649 22.8726V24.019V24.7327V25.4463V27.997C21.5649 29.2678 22.5459 30.2991 23.7547 30.2991H36.7533H36.8102C37.0598 30.2991 37.2963 30.253 37.5197 30.1748C37.8087 30.0735 38.0671 29.9077 38.2861 29.6959C38.7241 29.277 39 28.6692 39 27.9971V22.8726C39 22.2004 38.7241 21.5926 38.2861 21.1737ZM28.327 25.8929C28.327 26.5283 27.8365 27.044 27.2321 27.044H26.5051C25.9007 27.044 25.4102 26.5283 25.4102 25.8929V25.1286C25.4102 24.7603 25.5722 24.4334 25.8306 24.2262C26.019 24.0742 26.2511 23.9776 26.5051 23.9776H26.689H27.2321C27.8365 23.9776 28.327 24.4932 28.327 25.1286V25.8929Z" fill="white"/>
</svg>
