<svg width="41" height="42" viewBox="0 0 41 42" fill="none" xmlns="http://www.w3.org/2000/svg">
<g clip-path="url(#clip0)">
<path d="M25.1444 9.93087C27.621 9.93087 29.6287 7.87298 29.6287 5.33445C29.6287 2.79592 27.621 0.738037 25.1444 0.738037C22.6678 0.738037 20.6601 2.79592 20.6601 5.33445C20.6601 7.87298 22.6678 9.93087 25.1444 9.93087Z" fill="white"/>
<path d="M36.3379 16.546C32.3307 16.1236 28.4454 11.6788 27.4676 11.0633C26.8677 10.6193 26.1582 10.3286 25.4796 10.2201C25.4796 10.2201 24.9972 10.1175 24.4986 10.1739C24.0215 10.2282 23.296 10.2535 22.2337 11.0652C22.1567 11.1142 21.6141 11.5985 21.4429 11.8095C20.1207 13.2142 16.457 17.3684 14.6333 22.0677C14.3755 22.7352 14.5391 23.4603 14.988 23.9494L12.8462 27.8611L9.82914 26.1238C9.46901 25.9161 9.0119 26.0458 8.80957 26.4154L3.099 36.7583C2.89684 37.1276 3.02475 37.5982 3.38577 37.8037L5.66982 39.1203C5.30621 39.7837 5.39372 40.6419 5.94302 41.2124C6.60536 41.9054 7.69353 41.9138 8.36847 41.2329C8.99582 40.5986 9.04705 39.5914 8.51545 38.8969L11.6336 33.2895L13.8181 29.2996L16.5258 24.4883C17.1113 24.3928 17.6361 23.9928 17.8718 23.386C18.6437 21.394 19.8389 19.4748 20.9932 17.8845L21.5371 24.292C21.6002 25.0447 21.9061 25.6762 22.3595 26.1746C20.9571 28.7814 17.183 35.9097 15.8204 38.3315C15.21 39.4184 15.5728 40.8071 16.6326 41.4335C17.0304 41.6673 17.4707 41.7636 17.8971 41.732C18.6063 41.6794 19.2774 41.2778 19.6587 40.5998C20.9282 38.3441 24.2393 31.4979 25.6915 28.9246C26.8558 30.9078 28.8395 34.5573 31.3561 40.3852C31.722 41.2344 32.5328 41.7377 33.3839 41.7377C33.6849 41.7377 33.9883 41.6757 34.2805 41.5428C35.3988 41.0356 35.9048 39.6947 35.4088 38.5486C32.4411 31.6711 30.2559 27.8532 29.0452 25.8426C29.5238 25.2269 29.812 24.4615 29.7366 23.5634L29.2217 17.4942C30.7131 18.7148 32.6591 19.743 35.9819 20.0952C36.0436 20.102 36.1034 20.105 36.1639 20.105C37.044 20.105 37.8007 19.4224 37.8931 18.5048C37.9899 17.5237 37.295 16.6469 36.3379 16.546ZM7.13074 40.6767C6.78571 40.6767 6.50589 40.39 6.50589 40.0366C6.50589 39.6831 6.78571 39.3964 7.13074 39.3964C7.47536 39.3964 7.75526 39.6831 7.75526 40.0366C7.7551 40.3902 7.47544 40.6767 7.13074 40.6767Z" fill="white"/>
</g>
<defs>
<clipPath id="clip0">
<rect width="40" height="41" fill="white" transform="translate(0.452637 0.738037)"/>
</clipPath>
</defs>
</svg>
