<svg width="51" height="52" viewBox="0 0 51 52" fill="none" xmlns="http://www.w3.org/2000/svg">
<g clip-path="url(#clip0)">
<path d="M33.0822 22.7267L33.1112 22.9447L32.7852 23.0117L32.7422 23.4767H33.1332L33.6542 23.4257L33.9222 23.1067L33.6372 22.9957L33.4812 22.8157L33.2442 22.4357L33.1332 21.8967L32.6902 21.9857L32.5682 22.1777V22.3907L32.7812 22.5347L33.0822 22.7267Z" fill="white"/>
<path d="M32.7072 22.9057L32.7312 22.6147L32.4722 22.5017L32.1082 22.5857L31.8402 23.0177V23.2967H32.1542L32.7072 22.9057Z" fill="white"/>
<path d="M25.2462 24.1427L25.1662 24.3477H24.7802V24.5467H24.8722C24.8722 24.5467 24.8782 24.5877 24.8852 24.6447L25.1222 24.6247L25.2692 24.5327L25.3082 24.3457L25.4992 24.3277L25.5742 24.1717L25.3982 24.1367L25.2462 24.1427Z" fill="white"/>
<path d="M24.2502 24.5037L24.2362 24.6987L24.5162 24.6757L24.5442 24.4787L24.3772 24.3477L24.2502 24.5037Z" fill="white"/>
<path d="M13.9622 25.1859V25.6059C14.1082 25.2619 14.2702 24.9279 14.4432 24.5999L13.9622 25.1859Z" fill="white"/>
<path d="M50.6802 12.6268C50.5502 10.3828 49.5542 8.32378 47.8732 6.82778C46.3302 5.45278 44.3452 4.69678 42.2792 4.69678C39.8792 4.69678 37.5862 5.72378 35.9902 7.51478C33.9062 9.85678 33.2982 13.1008 34.3792 16.0308C34.3472 16.8138 34.2642 17.6578 34.1662 18.4408C31.9042 17.0168 29.2292 16.1928 26.3652 16.1928C22.5322 16.1928 19.0392 17.6698 16.4222 20.0838C15.8122 20.6448 15.2512 21.2598 14.7432 21.9158C12.8242 24.3978 11.6792 27.5068 11.6792 30.8798C11.6792 30.9108 11.6832 30.9418 11.6842 30.9728C10.5802 30.5418 9.37918 30.3348 8.14218 30.4048C5.89718 30.5348 3.83718 31.5298 2.34218 33.2108C0.847182 34.8908 0.0951817 37.0508 0.226182 39.2948C0.482182 43.7418 4.16918 47.2268 8.62218 47.2268C8.78518 47.2268 8.94918 47.2208 9.11418 47.2108C12.2462 47.0278 14.9692 45.1658 16.2742 42.3298C16.4192 42.1958 16.5692 42.0628 16.7222 41.9318C19.3052 44.1898 22.6742 45.5708 26.3682 45.5708C32.0632 45.5708 37.0112 42.3068 39.4442 37.5548C39.9652 36.5388 40.3702 35.4548 40.6432 34.3208C40.7112 34.0338 40.7722 33.7428 40.8252 33.4498C40.9722 32.6158 41.0542 31.7588 41.0542 30.8838C41.0542 30.8328 41.0502 30.7818 41.0502 30.7328C41.0452 30.3018 41.0242 29.8788 40.9832 29.4588C40.8472 28.0588 40.5122 26.7168 40.0102 25.4588C39.9732 25.3648 39.9382 25.2708 39.9002 25.1798C39.3842 23.9628 38.7082 22.8338 37.8992 21.8108C38.6882 21.6078 39.5032 21.4068 40.1632 21.2678C40.8512 21.4458 41.5602 21.5378 42.2752 21.5378C44.6742 21.5378 46.9662 20.5108 48.5632 18.7178C50.0582 17.0328 50.8102 14.8708 50.6802 12.6268ZM18.4462 20.6658V20.6408H18.7402L18.7652 20.5388H19.2462V20.7498L19.1082 20.9338H18.4452L18.4462 20.6658ZM18.9162 21.3198C18.9162 21.3198 19.2102 21.2688 19.2352 21.2688C19.2602 21.2688 19.2352 21.5638 19.2352 21.5638L18.5712 21.6048L18.4452 21.4548L18.9162 21.3198ZM14.7592 41.0058L14.6082 41.1498L14.5252 41.3398C13.5592 43.5878 11.4412 45.0718 8.99918 45.2128C5.45218 45.4218 2.42618 42.6928 2.22318 39.1778C2.12418 37.4668 2.69718 35.8198 3.83718 34.5388C4.97718 33.2598 6.54718 32.4998 8.25818 32.3998C8.38418 32.3918 8.50918 32.3878 8.63418 32.3878C10.9742 32.3878 13.1292 33.6668 14.2582 35.7238L14.3762 35.9368L14.5792 36.0738C15.5592 36.7298 17.0662 37.6128 18.1632 38.2418C17.1882 38.9548 15.8432 39.9878 14.7592 41.0058ZM39.4822 27.7808C39.5012 27.8568 39.5182 27.9328 39.5362 28.0108L39.4402 27.8308L39.4822 27.7808ZM38.2852 24.8568L38.3712 24.7608C38.4812 24.9798 38.5892 25.1988 38.6862 25.4228L38.5472 25.4168L38.2842 25.4518V24.8568H38.2852ZM38.9322 26.0138C39.0692 26.3638 39.1902 26.7188 39.2972 27.0818L39.2212 27.1498H38.1462L37.4912 26.6638L36.8032 26.7298V27.1498H36.5822L36.3482 26.9818L35.1552 26.6788V25.9058L33.6432 26.0248L33.1732 26.2768H32.5722L32.2772 26.2478L31.5482 26.6518V27.4138L30.0582 28.4898L30.1822 28.9488H30.4842L30.4062 29.3848L30.1932 29.4628L30.1822 30.6088L31.4692 32.0768H32.0312L32.0642 31.9858H33.0722L33.3632 31.7148H33.9342L34.2472 32.0288L35.0992 32.1168L34.9882 33.2498L35.9332 34.9178L35.4352 35.8708L35.4682 36.3178L35.8612 36.7108V37.7888L36.3772 38.4798V39.3758H36.8222C34.3472 42.4128 30.5802 44.3568 26.3672 44.3568C23.0482 44.3568 20.0132 43.1398 17.6612 41.1418C19.1292 39.9608 20.5672 38.9878 20.5872 38.9738L21.9352 38.0618L20.5132 37.2708C20.4822 37.2538 17.5292 35.6108 15.8862 34.5398C15.1532 33.2938 14.1202 32.2958 12.9202 31.5828C12.9042 31.3508 12.8882 31.1158 12.8882 30.8798C12.8882 29.0088 13.2722 27.2258 13.9642 25.6048V25.1848L14.4452 24.5988C14.6122 24.2828 14.7922 23.9758 14.9832 23.6748L15.0042 23.9188L14.4442 24.5988C14.2702 24.9268 14.1092 25.2608 13.9632 25.6048V26.3708L14.5232 26.6408V27.7058L15.0612 28.6218L15.4982 28.6898L15.5542 28.3758L15.0392 27.5808L14.9382 26.8088H15.2402L15.3682 27.6038L16.1132 28.6918L15.9202 29.0448L16.3942 29.7678L17.5702 30.0588V29.8698L18.0412 29.9358L17.9962 30.2718L18.3662 30.3398L18.9372 30.4958L19.7442 31.4158L20.7742 31.4918L20.8752 32.3338L20.1702 32.8258L20.1372 33.5758L20.0352 34.0348L21.0552 35.3108L21.1332 35.7488C21.1332 35.7488 21.5032 35.8488 21.5482 35.8488C21.5932 35.8488 22.3762 36.4428 22.3762 36.4428V38.7518L22.6562 38.8298L22.4662 39.8938L22.9372 40.5208L22.8502 41.5758L23.4722 42.6698L24.2692 43.3648L25.0722 43.3808L25.1512 43.1228L24.5612 42.6268L24.5952 42.3808L24.7012 42.0778L24.7232 41.7688L24.3242 41.7588L24.1242 41.5048L24.4522 41.1858L24.4972 40.9458L24.1282 40.8398L24.1492 40.6168L24.6762 40.5368L25.4772 40.1508L25.7462 39.6568L26.5872 38.5838L26.3962 37.7418L26.6542 37.2948L27.4262 37.3168L27.9472 36.9048L28.1152 35.2848L28.6912 34.5508L28.7932 34.0798L28.2682 33.9118L27.9202 33.3418L26.7322 33.3298L25.7912 32.9698L25.7472 32.2998L25.4342 31.7488L24.5822 31.7358L24.0892 30.9648L23.6522 30.7518L23.6302 30.9848L22.8352 31.0328L22.5442 30.6288L21.7142 30.4588L21.0302 31.2478L19.9552 31.0658L19.8772 29.8528L19.0922 29.7198L19.4072 29.1238L19.3162 28.7818L18.2852 29.4698L17.6372 29.3918L17.4062 28.8828L17.5482 28.3628L17.9062 27.7028L18.7282 27.2868L20.3182 27.2848L20.3142 27.7698L20.8852 28.0368L20.8392 27.2088L21.2512 26.7948L22.0822 26.2478L22.1392 25.8628L22.9682 25.0018L23.8502 24.5138L23.7722 24.4498L24.3692 23.8888L24.5882 23.9458L24.6882 24.0728L24.9152 23.8208L24.9712 23.7958L24.7242 23.7628L24.4722 23.6788V23.4348L24.6062 23.3258H24.9002L25.0352 23.3848L25.1522 23.6208L25.2952 23.5998V23.5788L25.3362 23.5928L25.7492 23.5288L25.8082 23.3278L26.0432 23.3868V23.6058L25.8242 23.7558H25.8252L25.8562 23.9958L26.6042 24.2258C26.6042 24.2258 26.6062 24.2298 26.6072 24.2358L26.7802 24.2198L26.7902 23.8958L26.1982 23.6258L26.1652 23.4698L26.6582 23.3018L26.6792 22.8308L26.1652 22.5178L26.1312 21.7228L25.4252 22.0688H25.1682L25.2352 21.4648L24.2742 21.2358L23.8772 21.5368V22.4528L23.1622 22.6798L22.8762 23.2758L22.5652 23.3268V22.5628L21.8932 22.4688L21.5582 22.2498L21.4222 21.7558L22.6242 21.0528L23.2122 20.8728L23.2712 21.2678L23.5992 21.2518L23.6232 21.0528L23.9672 21.0038L23.9732 20.9338L23.8262 20.8728L23.7922 20.6638L24.2112 20.6318L24.4662 20.3658L24.4812 20.3448L24.4842 20.3468L24.5612 20.2668L25.4462 20.1558L25.8382 20.4878L24.8122 21.0348L26.1182 21.3418L26.2872 20.9058H26.8582L27.0592 20.5248L26.6562 20.4228V19.9428L25.3902 19.3818L24.5172 19.4838L24.0232 19.7398L24.0572 20.3688L23.5422 20.2888L23.4622 19.9428L23.9562 19.4938L23.0612 19.4498L22.8042 19.5278L22.6922 19.8308L23.0282 19.8878L22.9612 20.2238L22.3902 20.2568L22.3002 20.4818L21.4722 20.5028C21.4722 20.5028 21.4492 20.0338 21.4152 20.0338C21.3812 20.0338 22.0642 20.0218 22.0642 20.0218L22.5572 19.5398L22.2882 19.4048L21.9302 19.7528L21.3362 19.7198L20.9772 19.2278H20.2132L19.4182 19.8218H20.1462L20.2132 20.0348L20.0232 20.2128L20.8302 20.2358L20.9532 20.5268L20.0452 20.4938L20.0012 20.2688L19.4302 20.1458L19.1272 19.9778L18.4472 19.9838C20.6732 18.3628 23.4092 17.4018 26.3672 17.4018C29.1932 17.4018 31.8112 18.2888 33.9812 19.7828C33.8352 20.7518 33.7052 21.4368 33.7012 21.4508L33.3922 23.0488L34.9562 22.6038C34.9632 22.6018 35.1262 22.5548 35.3852 22.4828L35.4402 22.8678H35.2732L34.8182 22.8018L34.3152 22.8858L33.8282 23.5748L33.1322 23.6838L33.0292 24.2798L33.3242 24.3498L33.2402 24.7328L32.5472 24.5938L31.9122 24.7328L31.7772 25.0868L31.8862 25.8288L32.2602 26.0028L32.8842 25.9988L33.3062 25.9598L33.4362 25.6238L34.0952 24.7668L34.5312 24.8568L34.9572 24.4698L35.0372 24.7728L36.0912 25.4818L35.9612 25.6558L35.4862 25.6308L35.6702 25.8888L35.9612 25.9528L36.3042 25.8098L36.2982 25.3978L36.4492 25.3218L36.3282 25.1928L35.6252 24.7998L35.4402 24.2798H36.0232L36.2112 24.4658L36.7142 24.8978L36.7352 25.4228L37.2562 25.9778L37.4492 25.2178L37.8092 25.0208L37.8762 25.6418L38.2292 26.0288L38.9322 26.0138ZM19.6892 22.8648L20.0432 22.6968L20.3622 22.7728L20.2532 23.2028L19.9082 23.3118L19.6892 22.8648ZM21.5622 23.8748V24.1518H20.7562L20.4532 24.0678L20.5292 23.8748L20.9162 23.7148H21.4442V23.8748H21.5622ZM21.9322 24.2618V24.5298L21.7312 24.6608L21.4792 24.7078C21.4792 24.7078 21.4792 24.3038 21.4792 24.2628L21.9322 24.2618ZM21.7052 24.1518V23.8318L21.9822 24.0838L21.7052 24.1518ZM21.8312 24.7968V25.0588L21.6382 25.2518H21.2102L21.2762 24.9588L21.4782 24.9408L21.5202 24.8388L21.8312 24.7968ZM20.7652 24.2618H21.2102L20.6392 25.0588L20.4032 24.9318L20.4532 24.5978L20.7652 24.2618ZM22.5862 24.7068V24.9668H22.1572L22.0412 24.7968V24.5548H22.0742L22.5862 24.7068ZM22.1932 24.3478L22.3152 24.2188L22.5212 24.3478L22.3562 24.4828L22.1932 24.3478ZM36.8302 22.3968L36.5652 22.7918L35.6402 22.7818L35.5812 22.5908L36.1612 22.2958V22.2668C36.3022 22.2278 36.4522 22.1888 36.6062 22.1458C36.6832 22.2288 36.7602 22.3108 36.8302 22.3968ZM47.0682 17.3808C45.4452 19.2028 42.8092 19.9528 40.4752 19.2758L40.2422 19.2078L40.0022 19.2548C38.9732 19.4598 37.5352 19.8268 36.3672 20.1398C36.3262 20.1028 36.2872 20.0598 36.2462 20.0228C36.1662 19.9508 36.0782 19.8878 35.9982 19.8178C36.1682 18.6698 36.3452 17.2158 36.3872 15.8958L36.3942 15.6888L36.3172 15.4958C35.4132 13.2228 35.8602 10.6758 37.4872 8.84778C38.7032 7.48278 40.4512 6.69978 42.2812 6.69978C43.8542 6.69978 45.3692 7.27578 46.5452 8.32478C47.8262 9.46378 48.5862 11.0338 48.6852 12.7468C48.7832 14.4548 48.2092 16.1018 47.0682 17.3808Z" fill="white"/>
<path d="M8.69019 39.5119C10.2532 39.5119 11.5232 38.3439 11.5712 36.8939L11.6142 36.9149C11.6142 36.9149 11.8022 36.5049 11.6992 35.9229C11.5962 35.3409 11.1012 33.3549 8.69019 33.4559C6.33019 33.3919 6.83119 34.3389 6.28419 34.4759C5.27219 34.5169 5.72119 36.6259 5.82919 37.0809C5.97619 38.4409 7.19419 39.5119 8.69019 39.5119ZM11.0332 36.8109C11.0332 37.9989 9.98119 38.9639 8.69019 38.9639C7.41919 38.9639 6.38619 38.0259 6.35319 36.8639L8.60119 35.5099L11.0132 36.6329C11.0192 36.6909 11.0332 36.7479 11.0332 36.8109Z" fill="white"/>
<path d="M11.4502 39.377L10.0762 39.822L8.95818 40.765L7.81818 39.917L6.27318 39.376C6.27318 39.376 5.32318 43.4 6.21118 43.4C7.09918 43.4 10.7662 43.4 11.6682 43.4C12.5722 43.402 11.4502 39.377 11.4502 39.377Z" fill="white"/>
<path d="M42.0502 14.2147C43.6132 14.2147 44.8832 13.0467 44.9312 11.5957L44.9742 11.6167C44.9742 11.6167 45.1622 11.2047 45.0592 10.6247C44.9552 10.0427 44.4612 8.05467 42.0502 8.15767C39.6902 8.09367 40.1912 9.03867 39.6442 9.17567C38.6322 9.21667 39.0812 11.3277 39.1892 11.7807C39.3362 13.1447 40.5542 14.2147 42.0502 14.2147ZM44.3932 11.5137C44.3932 12.7017 43.3412 13.6677 42.0502 13.6677C40.7792 13.6677 39.7462 12.7297 39.7132 11.5697L41.9612 10.2147L44.3732 11.3357C44.3792 11.3967 44.3932 11.4527 44.3932 11.5137Z" fill="white"/>
<path d="M44.8102 14.0796L43.4362 14.5266L42.3192 15.4676L41.1782 14.6216L39.6332 14.0786C39.6332 14.0786 38.6832 18.1036 39.5712 18.1036C40.4602 18.1036 44.1262 18.1036 45.0282 18.1036C45.9322 18.1056 44.8102 14.0796 44.8102 14.0796Z" fill="white"/>
</g>
<defs>
<clipPath id="clip0">
<rect width="50.483" height="50.483" fill="white" transform="translate(0.211182 0.719727)"/>
</clipPath>
</defs>
</svg>
