<svg width="35" height="35" viewBox="0 0 35 35" fill="none" xmlns="http://www.w3.org/2000/svg">
<g clip-path="url(#clip0)">
<path d="M10.7588 10.5675C10.9792 13.4622 12.1305 12.2145 12.368 13.483C12.7629 15.5915 14.6297 17.1166 15.7918 17.6434C16.4697 17.9505 17.1679 18.1047 17.902 18.1169V18.1176C17.9045 18.1176 17.907 18.1173 17.9096 18.1173C17.9121 18.1173 17.9147 18.1176 17.9172 18.1176V18.1169C18.6512 18.1047 19.3493 17.9506 20.0274 17.6434C21.1895 17.1166 23.0563 15.5915 23.4512 13.483C23.6887 12.2146 24.84 13.4622 25.0604 10.5675C25.0604 9.4139 24.4318 9.12681 24.4318 9.12681C24.4318 9.12681 24.7513 7.41929 24.8765 6.10539C25.0316 4.46795 23.9207 0.238037 17.9952 0.238037C17.9693 0.238037 17.9453 0.23945 17.92 0.239733C17.9191 0.239733 17.9182 0.239733 17.9173 0.239662V0.239379C17.9147 0.23945 17.9122 0.239521 17.9097 0.239521C17.9071 0.239521 17.9046 0.23945 17.902 0.239379V0.239733C17.9011 0.239803 17.9003 0.239803 17.8993 0.239803C17.8741 0.23945 17.85 0.238108 17.8241 0.238108C11.8987 0.238108 10.7878 4.46802 10.9428 6.10546C11.0679 7.41936 11.3875 9.12688 11.3875 9.12688C11.3875 9.12688 10.7588 9.4139 10.7588 10.5675Z" fill="white"/>
<path d="M31.3512 24.7775C28.3624 23.2571 24.0305 21.358 23.8226 21.2909C23.8202 21.2901 23.8185 21.2899 23.8162 21.2892C23.6946 21.2459 23.5639 21.2219 23.4274 21.2219C22.9196 21.2219 22.4889 21.5472 22.3291 22.0005C22.3282 21.9999 22.3274 21.9996 22.3265 21.999C21.5551 23.858 20.1381 27.1717 19.2582 28.7696L19.0463 24.2899C19.0463 24.2899 20.3677 21.4854 20.5123 21.2285C20.8528 20.6263 20.5461 20.1135 19.9078 20.1135C19.5912 20.1135 18.799 20.1135 18.0056 20.1135C18.0047 20.1135 18.0039 20.1135 18.003 20.1135C17.9979 20.1135 17.9928 20.1135 17.9877 20.1135C17.9868 20.1135 17.9859 20.1135 17.985 20.1135C17.9741 20.1135 17.9633 20.1135 17.9524 20.1135C17.9415 20.1135 17.9306 20.1135 17.9197 20.1135C17.9188 20.1135 17.918 20.1135 17.9171 20.1135C17.912 20.1135 17.9069 20.1135 17.9018 20.1135C17.9009 20.1135 17.9 20.1135 17.8991 20.1135C17.1058 20.1135 16.3137 20.1135 15.997 20.1135C15.3586 20.1135 15.052 20.6263 15.3925 21.2285C15.5372 21.4854 16.8585 24.2899 16.8585 24.2899L16.6466 28.7696C15.7667 27.1717 14.3497 23.8582 13.5783 21.999C13.5774 21.9996 13.5766 21.9999 13.5757 22.0005C13.4159 21.5474 12.9852 21.2219 12.4774 21.2219C12.3409 21.2219 12.2102 21.2459 12.0886 21.2892C12.0864 21.2901 12.0846 21.2903 12.0823 21.2909C11.8744 21.358 7.54238 23.2571 4.5536 24.7775C3.21137 25.4604 2.40131 26.3097 2.40131 27.2034C2.40131 30.1582 2.40131 34.2381 2.40131 34.2381H17.8882H17.9017H17.9091H17.9096H17.9171H17.9306H17.9524H17.9743H17.9878H17.9952H17.9956H18.003H18.0165H33.5035C33.5035 34.2381 33.5035 30.1582 33.5035 27.2034C33.5034 26.3097 32.6935 25.4604 31.3512 24.7775Z" fill="white"/>
</g>
<defs>
<clipPath id="clip0">
<rect width="34" height="34" fill="white" transform="translate(0.952515 0.238037)"/>
</clipPath>
</defs>
</svg>
