<svg width="48" height="46" viewBox="0 0 48 46" fill="none" xmlns="http://www.w3.org/2000/svg">
<path d="M46.7729 7.13784C45.4424 6.19428 43.6228 6.47436 42.5269 8.01916C41.5684 9.36999 41.9019 11.512 42.5018 12.3905C42.5018 12.3905 42.5361 12.4346 42.4726 12.4609C42.3661 12.505 41.7341 12.8499 41.7341 12.8499C41.5674 12.9018 41.5477 13.0269 41.6899 13.128L41.9172 13.2893C41.9172 13.2893 41.9959 13.3483 41.9485 13.4152C41.4873 14.0655 37.6642 19.5568 35.9756 21.983C35.6292 22.4354 35.6959 22.0341 35.7414 21.7829C36.0974 19.8246 36.5354 17.4155 36.6379 16.8518C36.6527 16.771 36.7642 16.7885 36.7642 16.7885L37.024 16.8359C37.1958 16.867 37.2714 16.7655 37.1921 16.61C37.1921 16.61 37.0053 15.9219 36.9589 15.8193C36.9282 15.7515 36.975 15.7476 36.975 15.7476C38.0452 15.5746 39.7953 14.3021 40.0926 12.6663C40.4316 10.8029 39.3598 9.30568 37.7551 9.01394C36.1503 8.7222 34.6202 9.74628 34.2814 11.6098C33.9851 13.2394 35.1939 15.0387 36.1094 15.5807C36.1094 15.5807 36.1592 15.6063 36.1126 15.657C36.0348 15.7418 35.6083 16.322 35.6083 16.322C35.4792 16.4395 35.5142 16.5614 35.686 16.5925L35.9603 16.6424C35.9603 16.6424 36.0566 16.6626 36.0418 16.7434C35.9071 17.4846 35.2066 21.4182 34.8467 23.3175C34.8296 23.4078 34.5324 23.5646 34.3444 23.8108C34.1753 24.0322 32.648 26.5077 30.4553 26.8759C29.8276 26.8759 25.7427 26.8759 25.071 26.8759C23.4749 26.6077 22.0976 25.3296 21.712 24.3697C21.5416 23.9453 21.3542 23.4381 21.1322 22.961L17.0965 13.8937C16.8174 13.294 16.5707 12.4907 15.4243 12.4907C15.0011 12.4907 14.5813 12.4907 14.0963 12.4907H8.12637C7.63223 12.4907 7.37549 12.4907 6.76673 12.4907C5.62349 12.4907 5.02691 13.2355 4.6999 13.9066L0.615896 22.8843C0.13342 23.8742 -0.446564 25.0705 0.532782 25.5562C1.51278 26.0417 2.41744 25.633 2.90017 24.6425L4.96661 21.052C4.96661 21.052 5.085 20.8413 5.04065 21.0746C4.76486 22.5267 2.59922 29.704 2.59922 29.704C2.41393 30.613 3.02128 31.357 3.94915 31.357C3.94915 31.357 5.60417 31.357 6.15562 31.357C6.31355 31.357 6.28542 31.4757 6.28542 31.4757L6.70669 43.0723C6.70669 44.5429 7.20136 45.314 8.33176 45.314C9.46165 45.314 9.95683 44.5429 9.95683 43.0723L10.3781 31.4409C10.3781 31.4409 10.3734 31.3537 10.4656 31.3571C10.5845 31.3609 10.8855 31.3576 11.0202 31.3576C11.0972 31.3576 11.0876 31.4503 11.0876 31.4503L11.5089 43.0724C11.5089 44.5431 12.0041 45.3142 13.1345 45.3142C14.2644 45.3142 14.7596 44.5431 14.7596 43.0724L15.1808 31.4995C15.1808 31.4995 15.1673 31.3571 15.3369 31.3571C15.9304 31.3571 17.7106 31.3571 17.7106 31.3571C18.6383 31.3571 19.2604 30.6102 19.093 29.6978C19.093 29.6978 16.9254 22.2037 16.7221 20.927C16.6639 20.5611 18.957 24.6689 18.957 24.6689C19.322 25.4535 20.1114 25.3589 20.4588 25.8822C21.2113 27.0155 22.0993 28.1814 23.0073 28.7223C24.4738 29.6114 24.4969 29.2134 24.6365 30.5009L24.6127 31.3645L24.1273 34.9879C24.0982 35.2055 24.2005 35.3944 24.3729 35.4856C24.4113 35.5058 24.4951 35.5291 24.4941 35.656L24.2668 43.871C24.2462 43.9483 24.2668 44.4912 24.3108 44.5119C24.4532 44.9673 24.8668 45.3138 25.3865 45.3138C25.8832 45.3138 26.3173 45.0032 26.4832 44.5693C26.4598 44.5536 27.6046 36.6082 27.7632 36.6082C27.9712 36.6082 29.0432 44.5693 29.0432 44.5693C29.2296 45.0034 29.6432 45.3138 30.1399 45.3138C30.6622 45.3138 31.0707 44.9673 31.2364 44.5119C31.2364 44.4912 31.2777 43.9482 31.2364 43.871L31.0229 35.6387C31.0124 35.5205 31.1096 35.4936 31.1487 35.4698C31.3057 35.3743 31.3971 35.1942 31.3695 34.9878L30.9188 31.6239L30.8896 30.5008C31.0294 29.2133 31.0707 29.6114 32.519 28.7222C34.0113 27.8321 35.5396 24.8461 35.6104 24.4398C35.69 23.9828 35.4483 23.7996 35.5977 23.5863C36.684 22.0357 41.9236 14.4977 42.4429 13.766C42.4903 13.6988 42.5841 13.7619 42.5841 13.7619L42.7995 13.9149C42.9418 14.016 43.0533 13.9559 43.0473 13.7813C43.0473 13.7813 43.1694 13.079 43.1708 12.9663C43.1717 12.8919 43.2157 12.9084 43.2157 12.9084C44.2584 13.2047 46.3827 12.7928 47.3445 11.4367C48.4402 9.89163 48.1032 8.0814 46.7729 7.13784Z" fill="white"/>
<path d="M10.7329 10.9202C13.5804 10.9202 15.8888 8.61186 15.8888 5.76432C15.8888 2.91679 13.5804 0.608398 10.7329 0.608398C7.88535 0.608398 5.57697 2.91679 5.57697 5.76432C5.57697 8.61186 7.88535 10.9202 10.7329 10.9202Z" fill="white"/>
<path d="M27.7629 25.8819C29.3377 25.8819 30.6154 24.5988 30.6154 23.0272C30.6154 21.4393 29.3377 20.1719 27.7629 20.1719C26.1673 20.1719 24.8871 21.4393 24.8871 23.0272C24.8873 24.599 26.1673 25.8819 27.7629 25.8819Z" fill="white"/>
</svg>
