<svg width="39" height="39" viewBox="0 0 39 39" fill="none" xmlns="http://www.w3.org/2000/svg">
<g clip-path="url(#clip0)">
<path d="M11.5406 21.9377C12.6085 21.9377 13.6407 21.8687 14.6175 21.7403V11.034C13.6408 10.9056 12.6085 10.8367 11.5406 10.8367C5.44314 10.8367 0.500122 13.0785 0.500122 15.8441V16.9301C0.500122 19.6956 5.44314 21.9377 11.5406 21.9377Z" fill="white"/>
<path d="M11.5406 27.5282C12.6085 27.5282 13.6407 27.4592 14.6175 27.331V24.1928C13.6406 24.3211 12.6088 24.391 11.5406 24.391C6.21818 24.391 1.77581 22.6827 0.732323 20.4092C0.580361 20.7404 0.500122 21.0833 0.500122 21.4348V22.5208C0.500122 25.2863 5.44314 27.5282 11.5406 27.5282Z" fill="white"/>
<path d="M14.6174 30.0273V29.7834C13.6404 29.9117 12.6087 29.9816 11.5405 29.9816C6.21806 29.9816 1.77568 28.2733 0.732201 25.9998C0.580239 26.3308 0.5 26.6737 0.5 27.0253V28.1112C0.5 30.8769 5.44302 33.1188 11.5405 33.1188C12.7599 33.1188 13.9327 33.0289 15.0295 32.8633C14.7576 32.3072 14.6174 31.7208 14.6174 31.1132V30.0273Z" fill="white"/>
<path d="M27.4595 2.35571C21.362 2.35571 16.4189 4.59758 16.4189 7.36318V8.44915C16.4189 11.2147 21.362 13.4566 27.4595 13.4566C33.5569 13.4566 38.5 11.2147 38.5 8.44915V7.36318C38.5 4.59758 33.5569 2.35571 27.4595 2.35571Z" fill="white"/>
<path d="M27.4595 15.9098C22.137 15.9098 17.6946 14.2016 16.6511 11.928C16.4992 12.2591 16.4189 12.602 16.4189 12.9536V14.0396C16.4189 16.8051 21.362 19.047 27.4595 19.047C33.5569 19.047 38.5 16.8051 38.5 14.0396V12.9536C38.5 12.602 38.4197 12.2591 38.2678 11.928C37.2243 14.2016 32.7819 15.9098 27.4595 15.9098Z" fill="white"/>
<path d="M27.4595 21.5007C22.137 21.5007 17.6946 19.7924 16.6511 17.5188C16.4992 17.8499 16.4189 18.1928 16.4189 18.5444V19.6304C16.4189 22.3961 21.362 24.6379 27.4595 24.6379C33.5569 24.6379 38.5 22.3961 38.5 19.6304V18.5444C38.5 18.1928 38.4197 17.8499 38.2678 17.5188C37.2243 19.7925 32.7819 21.5007 27.4595 21.5007Z" fill="white"/>
<path d="M27.4595 27.393C22.137 27.393 17.6946 25.6847 16.6511 23.4111C16.4992 23.7423 16.4189 24.0851 16.4189 24.4366V25.5227C16.4189 28.2883 21.362 30.5302 27.4595 30.5302C33.5569 30.5302 38.5 28.2883 38.5 25.5227V24.4366C38.5 24.0851 38.4197 23.7421 38.2678 23.4111C37.2243 25.6846 32.7819 27.393 27.4595 27.393Z" fill="white"/>
<path d="M27.4595 32.9836C22.137 32.9836 17.6946 31.2754 16.6511 29.0018C16.4992 29.333 16.4189 29.676 16.4189 30.0273V31.1133C16.4189 33.8789 21.362 36.1207 27.4595 36.1207C33.5569 36.1207 38.5 33.8789 38.5 31.1133V30.0272C38.5 29.6757 38.4197 29.3327 38.2678 29.0017C37.2243 31.2753 32.7819 32.9836 27.4595 32.9836Z" fill="white"/>
</g>
<defs>
<clipPath id="clip0">
<rect width="38" height="38" fill="white" transform="translate(0.5 0.238037)"/>
</clipPath>
</defs>
</svg>
