<svg width="38" height="38" viewBox="0 0 38 38" fill="none" xmlns="http://www.w3.org/2000/svg">
<g clip-path="url(#clip0)">
<path d="M6.07236 29.7646H4.48647C2.28829 29.7646 0.5 31.5532 0.5 33.7514V36.6542C0.5 37.2529 0.985252 37.7381 1.58398 37.7381H6.25895C6.13841 37.3988 6.07236 37.0341 6.07236 36.6542V29.7646Z" fill="white"/>
<path d="M13.8127 23.9592H12.2271C10.0289 23.9592 8.24033 25.7478 8.24033 27.946V36.654C8.24033 37.2527 8.72558 37.738 9.32431 37.738H13.9993C13.879 37.3987 13.8127 37.034 13.8127 36.654V23.9592Z" fill="white"/>
<path d="M37.2872 11.6264L29.5465 1.17671C29.3419 0.900917 29.0189 0.738037 28.6754 0.738037C28.3319 0.738037 28.0086 0.900917 27.8043 1.17671L20.0639 11.6264C19.8203 11.9553 19.7828 12.3937 19.9668 12.7593C20.1512 13.1248 20.5255 13.3557 20.9351 13.3557H23.7213V36.6541C23.7213 37.2528 24.2065 37.738 24.8052 37.738H32.5456C33.1443 37.738 33.6296 37.2528 33.6296 36.6541V13.3557H36.416C36.8253 13.3557 37.1999 13.1248 37.384 12.7593C37.5683 12.3937 37.5308 11.9553 37.2872 11.6264Z" fill="white"/>
<path d="M21.5533 18.1541H19.9674C17.7692 18.1541 15.9807 19.9423 15.9807 22.1405V36.6541C15.9807 37.2528 16.4662 37.738 17.0646 37.738H21.7396C21.6193 37.3987 21.5533 37.034 21.5533 36.6541V18.1541Z" fill="white"/>
</g>
<defs>
<clipPath id="clip0">
<rect width="37" height="37" fill="white" transform="translate(0.5 0.738037)"/>
</clipPath>
</defs>
</svg>
