<svg width="39" height="40" viewBox="0 0 39 40" fill="none" xmlns="http://www.w3.org/2000/svg">
<path d="M18.3557 7.88357C20.4218 7.88357 22.1002 6.11877 22.1002 3.94183C22.1002 1.76424 20.4218 0 18.3557 0C16.2873 0 14.6102 1.76424 14.6102 3.94183C14.6102 6.11877 16.2873 7.88357 18.3557 7.88357Z" fill="white"/>
<path d="M24.1424 30.22C23.1473 33.857 19.9621 36.5279 16.1909 36.5279C11.624 36.5279 7.9101 32.6184 7.9101 27.8126C7.9101 24.2552 9.94892 21.1933 12.8585 19.8403V16.1455C8.09362 17.6562 4.61212 22.3122 4.61212 27.8126C4.61212 34.5324 9.80626 40 16.1908 40C20.8436 40 24.8539 37.0892 26.6928 32.9127L25.3854 30.2089C25.0185 30.2121 24.5933 30.2161 24.1424 30.22Z" fill="white"/>
<path d="M35.0523 34.8992L30.0364 24.5188C29.662 23.7421 28.9053 23.2533 28.0774 23.2533H21.6531V21.7112H27.1821C27.7342 21.7112 28.1983 21.4075 28.498 20.9699C28.6928 20.6848 28.8314 20.3537 28.8314 19.975C28.8314 19.0165 28.0938 18.2391 27.1821 18.2391H23.8512H21.6531V13.0089C21.6531 11.5705 20.6399 9.53687 18.3559 9.53687C16.5342 9.53687 15.0575 11.0916 15.0575 13.0089V24.3405C15.0575 26.2966 16.5639 27.8823 18.4222 27.8823H24.4674H26.7293L31.1338 36.9979C31.5208 37.8008 32.2932 38.2641 33.0948 38.2641C33.4308 38.2641 33.7715 38.1833 34.0899 38.0117C35.1739 37.433 35.6044 36.0386 35.0523 34.8992Z" fill="white"/>
</svg>
